<!-- Uploaded to: SVGRepo, www.svgrepo.com, Transformed by: SVGRepo Tools -->
<svg version="1.1" id="Uploaded to svgrepo.com" xmlns="http://www.w3.org/2000/svg" xmlns:xlink="http://www.w3.org/1999/xlink" 
	 width="800px" height="800px" viewBox="0 0 32 32" xml:space="preserve">
<style type="text/css">
	.linesandangles_een{fill:#111918;}
</style>
<path class="linesandangles_een" d="M26.819,25l2.4-12h-8.404C20.928,12.686,21,12.352,21,12c0-1.654-1.346-3-3-3s-3,1.346-3,3
	c0,0.352,0.072,0.686,0.184,1H3v2h7.976l2.223,10H26.819z M17,12c0-0.551,0.448-1,1-1s1,0.449,1,1s-0.448,1-1,1S17,12.551,17,12z
	 M26.78,15l-1.6,8H14.802l-1.777-8H26.78z M13,26h14v2H13V26z M24.5,11c1.379,0,2.5-1.122,2.5-2.5S25.879,6,24.5,6S22,7.122,22,8.5
	S23.121,11,24.5,11z M24.5,8C24.775,8,25,8.224,25,8.5S24.775,9,24.5,9S24,8.776,24,8.5S24.225,8,24.5,8z"/>
</svg>